<svg viewBox="-1066.5 -524 2133 1048" width="2133" height="1048" style="background-color: rgb(255, 255, 255);" xmlns="http://www.w3.org/2000/svg"><path d="M-266.8319548848517,-77.3972617090535L-329.6650846171644,-100.41405221582889M-329.6650846171644,-243.88156811827645L-329.6650846171644,-100.41405221582889M-329.6650846171644,-100.41405221582889L-427.54294254316034,-33.49596512649905M-266.8319548848517,-220.86477761150107L-266.8319548848517,-77.3972617090535M-266.8319548848517,-77.3972617090535L-364.7098128108476,-10.479174619723668" style="fill:none;stroke:rgb(0,0,0);stroke-width:1;stroke-linecap:round"></path><path d="M-266.8319548848517,-77.3972617090535L-329.6650846171644,-100.41405221582886L-329.6650846171644,-243.88156811827642zM-427.5429425431604,-33.495965126499044L-329.6650846171644,-100.41405221582886L-266.8319548848517,-77.3972617090535zM-266.8319548848517,-220.86477761150107L-266.8319548848517,-77.3972617090535L-329.6650846171644,-243.88156811827642z" style="fill:rgb(238,238,238); fill-opacity: 0.32"></path><path d="M-266.8319548848517,-220.86477761150107L-329.6650846171644,-243.88156811827645M-329.6650846171644,-243.88156811827645L-427.54294254316034,-176.9634810289466M-92.80883676587115,-14.2097625399698L-194.68829445290913,-51.52985378031631M-194.68829445290913,-191.04904071987258L-194.68829445290913,-51.52985378031631M-194.68829445290913,-51.52985378031631L-289.87248351007383,13.546599544505174M-312.68328386071346,-110.44732109998105L-375.5164135930262,-133.46411160675643M-375.5164135930262,-156.4618745369789L-375.5164135930262,-133.46411160675643M-375.5164135930262,-133.46411160675643L-391.20617972956836,-122.73717949990358" style="fill:none;stroke:rgb(0,0,0);stroke-width:1;stroke-linecap:round"></path><path d="M-329.6650846171644,-243.88156811827642L-329.6650846171644,-100.41405221582886L-427.5429425431604,-176.9634810289466zM-364.70981281084767,-10.479174619723672L-427.5429425431604,-33.495965126499044L-266.8319548848517,-77.3972617090535z" style="fill:rgb(238,238,238); fill-opacity: 0.32"></path><path d="M-312.68328386071346,-133.44508403020353L-375.5164135930262,-156.4618745369789M-375.5164135930262,-156.4618745369789L-391.20617972956836,-145.73494243012607" style="fill:none;stroke:rgb(0,0,0);stroke-width:1;stroke-linecap:round"></path><path d="M-329.6650846171644,-100.41405221582886L-427.5429425431604,-33.495965126499044L-427.5429425431604,-176.9634810289466zM-364.70981281084767,-10.479174619723672L-266.8319548848517,-77.3972617090535L-266.8319548848517,-220.86477761150107z" style="fill:rgb(238,238,238); fill-opacity: 0.32"></path><path d="M-375.5164135930262,-156.4618745369789L-375.5164135930262,-133.46411160675643L-391.2061797295684,-145.73494243012607zM-375.5164135930262,-133.46411160675643L-391.2061797295684,-122.73717949990356L-391.2061797295684,-145.73494243012607zM-312.68328386071346,-110.44732109998107L-375.5164135930262,-133.46411160675643L-375.5164135930262,-156.4618745369789z" style="fill:rgb(153,221,255); fill-opacity: 0.4"></path><path d="M-391.20617972956836,-145.73494243012607L-391.20617972956836,-122.73717949990358M-391.20617972956836,-122.73717949990358L-328.37304999725563,-99.7203889931282" style="fill:none;stroke:rgb(0,0,0);stroke-width:1;stroke-linecap:round"></path><path d="M-391.2061797295684,-122.73717949990356L-375.5164135930262,-133.46411160675643L-312.68328386071346,-110.44732109998107z" style="fill:rgb(153,221,255); fill-opacity: 0.4"></path><path d="M-427.54294254316034,-176.9634810289466L-427.54294254316034,-33.49596512649905M-427.54294254316034,-33.49596512649905L-364.7098128108476,-10.479174619723668M-266.8319548848517,-220.86477761150107L-364.7098128108476,-153.94669052217122M-391.20617972956836,-145.73494243012607L-328.37304999725563,-122.71815192335067" style="fill:none;stroke:rgb(0,0,0);stroke-width:1;stroke-linecap:round"></path><path d="M-312.68328386071346,-133.44508403020353L-312.68328386071346,-110.44732109998107L-375.5164135930262,-156.4618745369789zM-328.3730499972557,-99.7203889931282L-391.2061797295684,-122.73717949990356L-312.68328386071346,-110.44732109998107zM-391.2061797295684,-145.73494243012607L-328.3730499972557,-122.71815192335067L-375.5164135930262,-156.4618745369789z" style="fill:rgb(153,221,255); fill-opacity: 0.4"></path><path d="M-312.6832925021107,-133.4450874182704L-312.6832925021107,-110.4473244880479M-312.6832925021107,-110.4473244880479L-328.3730586386529,-99.72039238119501M-312.6832925021107,-110.4473244880479L-246.90675757751413,-89.63691979754205M-312.68328386071346,-133.44508403020353L-312.68328386071346,-110.44732109998105M-312.68328386071346,-110.44732109998105L-328.37304999725563,-99.7203889931282" style="fill:none;stroke:rgb(0,0,0);stroke-width:1;stroke-linecap:round"></path><path d="M-391.2061797295684,-145.73494243012607L-391.2061797295684,-122.73717949990356L-328.3730499972557,-122.71815192335067z" style="fill:rgb(153,221,255); fill-opacity: 0.4"></path><path d="M-119.06585182082023,-22.039409418352136L-220.9453095078582,-59.35950065869864M-220.9453095078582,-82.35726358892113L-220.9453095078582,-59.35950065869864M-220.9453095078582,-59.35950065869864L-236.63507564440042,-48.63256855184578" style="fill:none;stroke:rgb(0,0,0);stroke-width:1;stroke-linecap:round"></path><path d="M-328.3730499972557,-122.71815192335067L-312.68328386071346,-133.44508403020353L-375.5164135930262,-156.4618745369789z" style="fill:rgb(153,221,255); fill-opacity: 0.4"></path><path d="M-92.80883676587115,-14.209762539969804L-194.68829445290913,-51.5298537803163L-194.68829445290913,-191.04904071987258z" style="fill:rgb(238,238,238); fill-opacity: 0.32"></path><path d="M-391.2061797295684,-122.73717949990356L-328.3730499972557,-99.7203889931282L-328.3730499972557,-122.71815192335067zM-328.3730499972557,-99.7203889931282L-312.68328386071346,-110.44732109998107L-312.68328386071346,-133.44508403020353z" style="fill:rgb(153,221,255); fill-opacity: 0.4"></path><path d="M-312.6832828392149,-133.44508365601212L-312.6832828392149,-110.44732072578962L-328.3730489757571,-99.72038861893675z" style="fill:rgb(255,187,187); fill-opacity: 0.4"></path><path d="M-312.6832925021107,-133.4450874182704L-328.3730586386529,-122.7181553114175M-312.6832925021107,-133.4450874182704L-246.90675757751413,-89.63691979754205M-312.68328386071346,-133.44508403020353L-328.37304999725563,-122.71815192335067" style="fill:none;stroke:rgb(0,0,0);stroke-width:1;stroke-linecap:round"></path><path d="M-364.70981281084767,-153.94669052217122L-266.8319548848517,-220.86477761150107L-329.6650846171644,-243.88156811827642zM-289.87248351007383,13.546599544505186L-194.68829445290913,-51.5298537803163L-92.80883676587115,-14.209762539969804z" style="fill:rgb(238,238,238); fill-opacity: 0.32"></path><path d="M-119.06585182082023,-45.037172348574614L-220.9453095078582,-82.35726358892113M-220.9453095078582,-82.35726358892113L-236.63507564440042,-71.63033148206827M-328.3730586386529,-99.72039238119501L-328.3730586386529,-122.7181553114175M-328.3730586386529,-99.72039238119501L-246.90675757751413,-89.63691979754205M-328.37304999725563,-122.71815192335067L-328.37304999725563,-99.7203889931282" style="fill:none;stroke:rgb(0,0,0);stroke-width:1;stroke-linecap:round"></path><path d="M-220.9453095078582,-82.3572635889211L-220.9453095078582,-59.359500658698636L-236.63507564440042,-71.63033148206824zM-220.9453095078582,-59.359500658698636L-236.63507564440042,-48.632568551845765L-236.63507564440042,-71.63033148206824zM-328.3730499972557,-122.71815192335067L-328.3730499972557,-99.7203889931282L-312.68328386071346,-133.44508403020353z" style="fill:rgb(153,221,255); fill-opacity: 0.4"></path><path d="M-312.6832828392149,-133.44508365601212L-328.3730489757571,-99.72038861893675L-328.3730489757571,-122.71815154915923z" style="fill:rgb(255,187,187); fill-opacity: 0.4"></path><path d="M-236.63507564440042,-71.63033148206827L-236.63507564440042,-48.63256855184578M-236.63507564440042,-48.63256855184578L-134.75561795736243,-11.312477311499267M-92.80883676587115,-153.72894947952605L-92.80883676587115,-14.2097625399698M-92.80883676587115,-14.2097625399698L-187.99302582303582,50.866690784851684M-364.7098128108476,-153.94669052217122L-364.7098128108476,-10.479174619723668" style="fill:none;stroke:rgb(0,0,0);stroke-width:1;stroke-linecap:round"></path><path d="M-312.6832828392149,-110.44732072578962L-312.6832828392149,-133.44508365601212L-246.9067480412297,-89.63691614567895zM-328.3730489757571,-99.72038861893675L-312.6832828392149,-110.44732072578962L-246.9067480412297,-89.63691614567895z" style="fill:rgb(255,187,187); fill-opacity: 0.4"></path><path d="M-119.06585182082023,-22.039409418352133L-220.9453095078582,-59.359500658698636L-220.9453095078582,-82.3572635889211zM-236.63507564440042,-48.632568551845765L-220.9453095078582,-59.359500658698636L-119.06585182082023,-22.039409418352133z" style="fill:rgb(153,221,255); fill-opacity: 0.4"></path><path d="M-328.3730586386529,-122.7181553114175L-246.90675757751413,-89.63691979754205M-236.63507564440042,-71.63033148206827L-134.75561795736243,-34.31024024172176" style="fill:none;stroke:rgb(0,0,0);stroke-width:1;stroke-linecap:round"></path><path d="M-312.6832828392149,-133.44508365601212L-328.3730489757571,-122.71815154915923L-246.9067480412297,-89.63691614567895zM-328.3730489757571,-122.71815154915923L-328.3730489757571,-99.72038861893675L-246.9067480412297,-89.63691614567895z" style="fill:rgb(255,187,187); fill-opacity: 0.4"></path><path d="M-92.80883676587115,-153.72894947952605L-194.68829445290913,-191.04904071987258M-194.68829445290913,-191.04904071987258L-289.87248351007383,-125.97258739505108" style="fill:none;stroke:rgb(0,0,0);stroke-width:1;stroke-linecap:round"></path><path d="M-427.5429425431604,-33.495965126499044L-364.70981281084767,-10.479174619723672L-364.70981281084767,-153.94669052217122zM-364.70981281084767,-153.94669052217122L-364.70981281084767,-10.479174619723672L-266.8319548848517,-220.86477761150107zM-427.5429425431604,-176.9634810289466L-364.70981281084767,-153.94669052217122L-329.6650846171644,-243.88156811827642zM-194.68829445290913,-191.04904071987258L-194.68829445290913,-51.5298537803163L-289.87248351007383,-125.97258739505106z" style="fill:rgb(238,238,238); fill-opacity: 0.32"></path><path d="M-236.63507564440042,-71.63033148206824L-134.7556179573624,-34.31024024172175L-220.9453095078582,-82.3572635889211zM-236.63507564440042,-71.63033148206824L-236.63507564440042,-48.632568551845765L-134.7556179573624,-34.31024024172175z" style="fill:rgb(153,221,255); fill-opacity: 0.4"></path><path d="M-427.5429425431604,-176.9634810289466L-427.5429425431604,-33.495965126499044L-364.70981281084767,-153.94669052217122zM-92.80883676587115,-153.72894947952605L-92.80883676587115,-14.209762539969804L-194.68829445290913,-191.04904071987258z" style="fill:rgb(238,238,238); fill-opacity: 0.32"></path><path d="M-119.06585182082023,-45.037172348574614L-119.06585182082023,-22.039409418352133L-220.9453095078582,-82.3572635889211zM-134.7556179573624,-11.312477311499263L-236.63507564440042,-48.632568551845765L-119.06585182082023,-22.039409418352133z" style="fill:rgb(153,221,255); fill-opacity: 0.4"></path><path d="M-194.68829445290913,-51.5298537803163L-289.87248351007383,13.546599544505186L-289.87248351007383,-125.97258739505106z" style="fill:rgb(238,238,238); fill-opacity: 0.32"></path><path d="M-134.7556179573624,-34.31024024172175L-119.06585182082023,-45.037172348574614L-220.9453095078582,-82.3572635889211z" style="fill:rgb(153,221,255); fill-opacity: 0.4"></path><path d="M-427.54294254316034,-176.9634810289466L-364.7098128108476,-153.94669052217122M-119.06585182082023,-45.037172348574614L-119.06585182082023,-22.039409418352136M-119.06585182082023,-22.039409418352136L-134.75561795736243,-11.312477311499267M-119.0658494361024,-45.037170953677276L-119.0658494361024,-22.03940802345479M-119.0658494361024,-22.03940802345479L-134.7556155726446,-11.31247591660192M-119.0658494361024,-22.03940802345479L-55.40194780878564,-4.670419362466948" style="fill:none;stroke:rgb(0,0,0);stroke-width:1;stroke-linecap:round"></path><path d="M-236.63507564440042,-48.632568551845765L-134.7556179573624,-11.312477311499263L-134.7556179573624,-34.31024024172175z" style="fill:rgb(153,221,255); fill-opacity: 0.4"></path><path d="M-289.87248351007383,-125.97258739505108L-289.87248351007383,13.546599544505174M-289.87248351007383,13.546599544505174L-187.99302582303582,50.866690784851684" style="fill:none;stroke:rgb(0,0,0);stroke-width:1;stroke-linecap:round"></path><path d="M-187.99302582303582,50.86669078485168L-289.87248351007383,13.546599544505186L-92.80883676587115,-14.209762539969804z" style="fill:rgb(238,238,238); fill-opacity: 0.32"></path><path d="M-119.06585196079422,-45.03717239984935L-119.06585196079422,-22.039409469626857L-134.7556180973364,-11.31247736277399z" style="fill:rgb(255,187,187); fill-opacity: 0.4"></path><path d="M-134.7556179573624,-11.312477311499263L-119.06585182082023,-22.039409418352133L-119.06585182082023,-45.037172348574614z" style="fill:rgb(153,221,255); fill-opacity: 0.4"></path><path d="M-119.06585182082023,-45.037172348574614L-134.75561795736243,-34.31024024172176M-119.0658494361024,-45.037170953677276L-134.7556155726446,-34.310238846824404M-119.0658494361024,-45.037170953677276L-55.40194780878564,-4.670419362466948M75.56983661698303,44.563265548453046L-26.30962107005497,7.243174308106538M-26.30962107005497,-111.78064605522223L-26.30962107005497,7.243174308106538M-26.30962107005497,7.243174308106538L-107.51125410908081,62.759897565472855" style="fill:none;stroke:rgb(0,0,0);stroke-width:1;stroke-linecap:round"></path><path d="M-187.99302582303582,50.86669078485168L-92.80883676587115,-14.209762539969804L-92.80883676587115,-153.72894947952605z" style="fill:rgb(238,238,238); fill-opacity: 0.32"></path><path d="M-134.75561795736243,-34.31024024172176L-134.75561795736243,-11.312477311499267M-134.7556155726446,-11.31247591660192L-134.7556155726446,-34.310238846824404M-134.7556155726446,-11.31247591660192L-55.40194780878564,-4.670419362466948" style="fill:none;stroke:rgb(0,0,0);stroke-width:1;stroke-linecap:round"></path><path d="M-119.06585196079422,-45.03717239984935L-134.7556180973364,-11.31247736277399L-134.7556180973364,-34.310240292996475z" style="fill:rgb(255,187,187); fill-opacity: 0.4"></path><path d="M-134.7556179573624,-34.31024024172175L-134.7556179573624,-11.312477311499263L-119.06585182082023,-45.037172348574614z" style="fill:rgb(153,221,255); fill-opacity: 0.4"></path><path d="M-119.06585196079422,-22.039409469626857L-119.06585196079422,-45.03717239984935L-55.4019500280913,-4.670419313358251zM-134.7556180973364,-11.31247736277399L-119.06585196079422,-22.039409469626857L-55.4019500280913,-4.670419313358251z" style="fill:rgb(255,187,187); fill-opacity: 0.4"></path><path d="M-134.7556155726446,-34.310238846824404L-55.40194780878564,-4.670419362466948M-92.80883676587115,-153.72894947952605L-187.99302582303582,-88.65249615470458" style="fill:none;stroke:rgb(0,0,0);stroke-width:1;stroke-linecap:round"></path><path d="M-119.06585196079422,-45.03717239984935L-134.7556180973364,-34.310240292996475L-55.4019500280913,-4.670419313358251zM-134.7556180973364,-34.310240292996475L-134.7556180973364,-11.31247736277399L-55.4019500280913,-4.670419313358251z" style="fill:rgb(255,187,187); fill-opacity: 0.4"></path><path d="M-187.99302582303582,-88.65249615470458L-92.80883676587115,-153.72894947952605L-194.68829445290913,-191.04904071987258zM75.56983661698301,44.56326554845304L-26.309621070054977,7.243174308106538L-26.309621070054977,-111.78064605522223z" style="fill:rgb(238,238,238); fill-opacity: 0.32"></path><path d="M-187.99302582303582,-88.65249615470458L-187.99302582303582,50.866690784851684" style="fill:none;stroke:rgb(0,0,0);stroke-width:1;stroke-linecap:round"></path><path d="M-289.87248351007383,-125.97258739505106L-187.99302582303582,-88.65249615470458L-194.68829445290913,-191.04904071987258zM-107.51125410908082,62.759897565472855L-26.309621070054977,7.243174308106538L75.56983661698301,44.56326554845304zM-289.87248351007383,13.546599544505186L-187.99302582303582,50.86669078485168L-187.99302582303582,-88.65249615470458zM-289.87248351007383,-125.97258739505106L-289.87248351007383,13.546599544505186L-187.99302582303582,-88.65249615470458z" style="fill:rgb(238,238,238); fill-opacity: 0.32"></path><path d="M75.56983661698303,-74.46055481487572L75.56983661698303,44.563265548453046M75.56983661698303,44.563265548453046L-5.631796422042834,100.07998880581937M-289.87248351007383,-125.97258739505108L-187.99302582303582,-88.65249615470458" style="fill:none;stroke:rgb(0,0,0);stroke-width:1;stroke-linecap:round"></path><path d="M-187.99302582303582,-88.65249615470458L-187.99302582303582,50.86669078485168L-92.80883676587115,-153.72894947952605z" style="fill:rgb(238,238,238); fill-opacity: 0.32"></path><path d="M75.56983661698303,-74.46055481487572L-26.30962107005497,-111.78064605522223M-26.30962107005497,-111.78064605522223L-107.51125410908081,-56.26392279785591" style="fill:none;stroke:rgb(0,0,0);stroke-width:1;stroke-linecap:round"></path><path d="M-26.309621070054977,-111.78064605522223L-26.309621070054977,7.243174308106538L-107.51125410908082,-56.26392279785591zM-26.309621070054977,7.243174308106538L-107.51125410908082,62.759897565472855L-107.51125410908082,-56.26392279785591zM75.56983661698301,-74.46055481487572L75.56983661698301,44.56326554845304L-26.309621070054977,-111.78064605522223z" style="fill:rgb(238,238,238); fill-opacity: 0.32"></path><path d="M35.65571817123521,-4.662655135714398L-66.22373951580278,-41.9827463760609M-66.22373951580278,-51.83893048901339L-66.22373951580278,-41.9827463760609M-66.22373951580278,-41.9827463760609L-72.94792500289229,-37.38548975883825M-107.51125410908081,-56.26392279785591L-107.51125410908081,62.759897565472855M-107.51125410908081,62.759897565472855L-5.631796422042834,100.07998880581937M35.65571817123521,-14.518839248666891L-66.22373951580278,-51.83893048901339M-66.22373951580278,-51.83893048901339L-72.94792500289229,-47.24167387179073" style="fill:none;stroke:rgb(0,0,0);stroke-width:1;stroke-linecap:round"></path><path d="M-66.22373951580279,-51.8389304890134L-66.22373951580279,-41.9827463760609L-72.9479250028923,-47.24167387179074zM-66.22373951580279,-41.9827463760609L-72.9479250028923,-37.38548975883825L-72.9479250028923,-47.24167387179074z" style="fill:rgb(153,221,255); fill-opacity: 0.4"></path><path d="M-72.94792500289229,-47.24167387179073L-72.94792500289229,-37.38548975883825M-72.94792500289229,-37.38548975883825L28.9315326841457,-0.06539851849173858M-72.94792500289229,-47.24167387179073L28.9315326841457,-9.921582631444233" style="fill:none;stroke:rgb(0,0,0);stroke-width:1;stroke-linecap:round"></path><path d="M-5.631796422042835,100.07998880581937L-107.51125410908082,62.759897565472855L75.56983661698301,44.56326554845304z" style="fill:rgb(238,238,238); fill-opacity: 0.32"></path><path d="M35.65571817123521,-4.662655135714401L-66.22373951580279,-41.9827463760609L-66.22373951580279,-51.8389304890134zM-72.9479250028923,-37.38548975883825L-66.22373951580279,-41.9827463760609L35.65571817123521,-4.662655135714401z" style="fill:rgb(153,221,255); fill-opacity: 0.4"></path><path d="M-5.631796422042835,100.07998880581937L75.56983661698301,44.56326554845304L75.56983661698301,-74.46055481487572z" style="fill:rgb(238,238,238); fill-opacity: 0.32"></path><path d="M-72.9479250028923,-47.24167387179074L28.931532684145697,-9.921582631444231L-66.22373951580279,-51.8389304890134zM-72.9479250028923,-47.24167387179074L-72.9479250028923,-37.38548975883825L28.931532684145697,-9.921582631444231z" style="fill:rgb(153,221,255); fill-opacity: 0.4"></path><path d="M260.92842386613654,109.55631217859057L142.06905656459222,66.01620573151966M142.06905656459222,-32.51226058836783L142.06905656459222,66.01620573151966M142.06905656459222,66.01620573151966L74.84997099346121,111.97320476714489M75.56983661698303,-74.46055481487572L-5.631796422042834,-18.943831557509405" style="fill:none;stroke:rgb(0,0,0);stroke-width:1;stroke-linecap:round"></path><path d="M35.65571817123521,-14.51883924866689L35.65571817123521,-4.662655135714401L-66.22373951580279,-51.8389304890134zM28.931532684145697,-0.06539851849174101L-72.9479250028923,-37.38548975883825L35.65571817123521,-4.662655135714401zM28.931532684145697,-9.921582631444231L35.65571817123521,-14.51883924866689L-66.22373951580279,-51.8389304890134z" style="fill:rgb(153,221,255); fill-opacity: 0.4"></path><path d="M-5.631796422042835,-18.94383155750941L75.56983661698301,-74.46055481487572L-26.309621070054977,-111.78064605522223z" style="fill:rgb(238,238,238); fill-opacity: 0.32"></path><path d="M-72.9479250028923,-37.38548975883825L28.931532684145697,-0.06539851849174101L28.931532684145697,-9.921582631444231z" style="fill:rgb(153,221,255); fill-opacity: 0.4"></path><path d="M246.69418129038937,109.66454356417269L127.83481398884506,66.12443711710178M127.83481398884506,56.26825300414927L127.83481398884506,66.12443711710178M127.83481398884506,66.12443711710178L121.11062850175554,70.72169373432443M246.69418129038937,99.8083594512202L127.83481398884506,56.26825300414927M127.83481398884506,56.26825300414927L121.11062850175554,60.865509621371935" style="fill:none;stroke:rgb(0,0,0);stroke-width:1;stroke-linecap:round"></path><path d="M127.83481398884503,56.268253004149265L127.83481398884503,66.12443711710176L121.11062850175553,60.86550962137193z" style="fill:rgb(153,221,255); fill-opacity: 0.4"></path><path d="M-107.51125410908082,-56.26392279785591L-5.631796422042835,-18.94383155750941L-26.309621070054977,-111.78064605522223z" style="fill:rgb(238,238,238); fill-opacity: 0.32"></path><path d="M127.83481398884503,66.12443711710176L121.11062850175553,70.72169373432442L121.11062850175553,60.86550962137193z" style="fill:rgb(153,221,255); fill-opacity: 0.4"></path><path d="M121.11062850175554,60.865509621371935L121.11062850175554,70.72169373432443M121.11062850175554,70.72169373432443L239.96999580329987,114.26180018139536M35.65571770108915,-14.518838973039708L35.65571770108915,-4.662654860087219M35.65571770108915,-4.662654860087219L28.93153201360329,-0.06539810585563631M35.65571770108915,-4.662654860087219L106.24481254952438,23.09008177300287M35.65571817123521,-14.518839248666891L35.65571817123521,-4.662655135714398M35.65571817123521,-4.662655135714398L28.9315326841457,-0.06539851849173858" style="fill:none;stroke:rgb(0,0,0);stroke-width:1;stroke-linecap:round"></path><path d="M35.655718031261216,-14.518839299941623L35.655718031261216,-4.662655186989134L28.931532544171706,-0.06539856976647486z" style="fill:rgb(255,187,187); fill-opacity: 0.4"></path><path d="M28.931532684145697,-0.06539851849174101L35.65571817123521,-4.662655135714401L35.65571817123521,-14.51883924866689z" style="fill:rgb(153,221,255); fill-opacity: 0.4"></path><path d="M-5.631796422042834,-18.943831557509405L-5.631796422042834,100.07998880581937M121.11062850175554,60.865509621371935L239.96999580329987,104.40561606844285M35.65571770108915,-14.518838973039708L28.93153201360329,-9.921582218808126M35.65571770108915,-14.518838973039708L106.24481254952438,23.09008177300287M35.65571817123521,-14.518839248666891L28.9315326841457,-9.921582631444233" style="fill:none;stroke:rgb(0,0,0);stroke-width:1;stroke-linecap:round"></path><path d="M-107.51125410908082,62.759897565472855L-5.631796422042835,100.07998880581937L-5.631796422042835,-18.94383155750941zM-107.51125410908082,-56.26392279785591L-107.51125410908082,62.759897565472855L-5.631796422042835,-18.94383155750941z" style="fill:rgb(238,238,238); fill-opacity: 0.32"></path><path d="M28.93153201360329,-0.06539810585563631L28.93153201360329,-9.921582218808126M28.93153201360329,-0.06539810585563631L106.24481254952438,23.09008177300287M28.9315326841457,-9.921582631444233L28.9315326841457,-0.06539851849173858M-107.51125410908081,-56.26392279785591L-5.631796422042834,-18.943831557509405" style="fill:none;stroke:rgb(0,0,0);stroke-width:1;stroke-linecap:round"></path><path d="M35.655718031261216,-14.518839299941623L28.931532544171706,-0.06539856976647486L28.931532544171706,-9.921582682718965z" style="fill:rgb(255,187,187); fill-opacity: 0.4"></path><path d="M28.931532684145697,-9.921582631444231L28.931532684145697,-0.06539851849174101L35.65571817123521,-14.51883924866689z" style="fill:rgb(153,221,255); fill-opacity: 0.4"></path><path d="M260.92842386613654,109.55631217859057L142.06905656459222,66.01620573151966L142.06905656459222,-32.51226058836782z" style="fill:rgb(238,238,238); fill-opacity: 0.32"></path><path d="M28.93153201360329,-9.921582218808126L106.24481254952438,23.09008177300287" style="fill:none;stroke:rgb(0,0,0);stroke-width:1;stroke-linecap:round"></path><path d="M-5.631796422042835,-18.94383155750941L-5.631796422042835,100.07998880581937L75.56983661698301,-74.46055481487572z" style="fill:rgb(238,238,238); fill-opacity: 0.32"></path><path d="M246.69418129038937,109.66454356417267L127.83481398884503,66.12443711710176L127.83481398884503,56.268253004149265z" style="fill:rgb(153,221,255); fill-opacity: 0.4"></path><path d="M35.655718031261216,-4.662655186989134L35.655718031261216,-14.518839299941623L106.24481001828315,23.090080619408898z" style="fill:rgb(255,187,187); fill-opacity: 0.4"></path><path d="M121.11062850175553,70.72169373432442L127.83481398884503,66.12443711710176L246.69418129038937,109.66454356417267z" style="fill:rgb(153,221,255); fill-opacity: 0.4"></path><path d="M28.931532544171706,-0.06539856976647486L35.655718031261216,-4.662655186989134L106.24481001828315,23.090080619408898z" style="fill:rgb(255,187,187); fill-opacity: 0.4"></path><path d="M74.84997099346118,111.97320476714489L142.06905656459222,66.01620573151966L260.92842386613654,109.55631217859057z" style="fill:rgb(238,238,238); fill-opacity: 0.32"></path><path d="M35.655718031261216,-14.518839299941623L28.931532544171706,-9.921582682718965L106.24481001828315,23.090080619408898zM28.931532544171706,-9.921582682718965L28.931532544171706,-0.06539856976647486L106.24481001828315,23.090080619408898z" style="fill:rgb(255,187,187); fill-opacity: 0.4"></path><path d="M260.92842386613654,11.027845858703095L142.06905656459222,-32.51226058836783M142.06905656459222,-32.51226058836783L74.84997099346121,13.44473844725741" style="fill:none;stroke:rgb(0,0,0);stroke-width:1;stroke-linecap:round"></path><path d="M121.11062850175553,60.86550962137193L239.96999580329987,104.40561606844284L127.83481398884503,56.268253004149265zM121.11062850175553,60.86550962137193L121.11062850175553,70.72169373432442L239.96999580329987,104.40561606844284z" style="fill:rgb(153,221,255); fill-opacity: 0.4"></path><path d="M142.06905656459222,-32.51226058836782L142.06905656459222,66.01620573151966L74.84997099346118,13.44473844725741zM142.06905656459222,66.01620573151966L74.84997099346118,111.97320476714489L74.84997099346118,13.44473844725741z" style="fill:rgb(238,238,238); fill-opacity: 0.32"></path><path d="M260.92842386613654,11.027845858703095L260.92842386613654,109.55631217859057M260.92842386613654,109.55631217859057L193.70933829500555,155.51331121421583" style="fill:none;stroke:rgb(0,0,0);stroke-width:1;stroke-linecap:round"></path><path d="M246.69418129038937,99.80835945122018L246.69418129038937,109.66454356417267L127.83481398884503,56.268253004149265zM239.96999580329987,114.26180018139534L121.11062850175553,70.72169373432442L246.69418129038937,109.66454356417267z" style="fill:rgb(153,221,255); fill-opacity: 0.4"></path><path d="M74.84997099346121,13.44473844725741L74.84997099346121,111.97320476714489M74.84997099346121,111.97320476714489L193.70933829500555,155.51331121421583" style="fill:none;stroke:rgb(0,0,0);stroke-width:1;stroke-linecap:round"></path><path d="M239.96999580329987,104.40561606844284L246.69418129038937,99.80835945122018L127.83481398884503,56.268253004149265zM121.11062850175553,70.72169373432442L239.96999580329987,114.26180018139534L239.96999580329987,104.40561606844284z" style="fill:rgb(153,221,255); fill-opacity: 0.4"></path><path d="M260.92842386613654,11.027845858703092L260.92842386613654,109.55631217859057L142.06905656459222,-32.51226058836782z" style="fill:rgb(238,238,238); fill-opacity: 0.32"></path><path d="M246.69418129038937,99.8083594512202L246.69418129038937,109.66454356417269M246.69418129038937,109.66454356417269L239.96999580329987,114.26180018139536M246.6941834711928,99.80835943790284L246.6941834711928,109.66454355085531M246.6941834711928,109.66454355085531L239.96999905288376,114.2617994373637M246.6941834711928,109.66454355085531L313.4916041692811,129.01247445616158" style="fill:none;stroke:rgb(0,0,0);stroke-width:1;stroke-linecap:round"></path><path d="M246.69418112708638,99.80835939139966L246.69418112708638,109.66454350435217L239.96999563999688,114.26180012157482z" style="fill:rgb(255,187,187); fill-opacity: 0.4"></path><path d="M239.96999580329987,114.26180018139534L246.69418129038937,109.66454356417267L246.69418129038937,99.80835945122018z" style="fill:rgb(153,221,255); fill-opacity: 0.4"></path><path d="M193.70933829500555,155.51331121421583L74.84997099346118,111.97320476714489L260.92842386613654,109.55631217859057z" style="fill:rgb(238,238,238); fill-opacity: 0.32"></path><path d="M246.69418129038937,99.8083594512202L239.96999580329987,104.40561606844285M246.6941834711928,99.80835943790284L239.96999905288376,104.40561532441122M246.6941834711928,99.80835943790284L313.4916041692811,129.01247445616158M239.96999580329987,104.40561606844285L239.96999580329987,114.26180018139536M239.96999905288376,114.2617994373637L239.96999905288376,104.40561532441122M239.96999905288376,114.2617994373637L313.4916041692811,129.01247445616158" style="fill:none;stroke:rgb(0,0,0);stroke-width:1;stroke-linecap:round"></path><path d="M246.69418112708638,99.80835939139966L239.96999563999688,114.26180012157482L239.96999563999688,104.40561600862232z" style="fill:rgb(255,187,187); fill-opacity: 0.4"></path><path d="M239.96999580329987,104.40561606844284L239.96999580329987,114.26180018139534L246.69418129038937,99.80835945122018z" style="fill:rgb(153,221,255); fill-opacity: 0.4"></path><path d="M239.96999905288376,104.40561532441122L313.4916041692811,129.01247445616158" style="fill:none;stroke:rgb(0,0,0);stroke-width:1;stroke-linecap:round"></path><path d="M246.69418112708638,109.66454350435217L246.69418112708638,99.80835939139966L313.4916014597678,129.01247178878867z" style="fill:rgb(255,187,187); fill-opacity: 0.4"></path><path d="M193.70933829500555,155.51331121421583L260.92842386613654,109.55631217859057L260.92842386613654,11.027845858703092z" style="fill:rgb(238,238,238); fill-opacity: 0.32"></path><path d="M239.96999563999688,114.26180012157482L246.69418112708638,109.66454350435217L313.4916014597678,129.01247178878867zM246.69418112708638,99.80835939139966L239.96999563999688,104.40561600862232L313.4916014597678,129.01247178878867zM239.96999563999688,104.40561600862232L239.96999563999688,114.26180012157482L313.4916014597678,129.01247178878867z" style="fill:rgb(255,187,187); fill-opacity: 0.4"></path><path d="M260.92842386613654,11.027845858703095L193.70933829500555,56.984844894328326" style="fill:none;stroke:rgb(0,0,0);stroke-width:1;stroke-linecap:round"></path><path d="M193.70933829500555,56.98484489432832L260.92842386613654,11.027845858703092L142.06905656459222,-32.51226058836782zM74.84997099346118,13.44473844725741L193.70933829500555,56.98484489432832L142.06905656459222,-32.51226058836782z" style="fill:rgb(238,238,238); fill-opacity: 0.32"></path><path d="M463.26691854557737,180.76937232659293L327.4276416295267,131.0092506727976M327.4276416295267,52.9761446627445L327.4276416295267,131.0092506727976M327.4276416295267,131.0092506727976L274.19110780141256,167.40652256382472M74.84997099346121,13.44473844725741L193.70933829500555,56.984844894328326" style="fill:none;stroke:rgb(0,0,0);stroke-width:1;stroke-linecap:round"></path><path d="M74.84997099346118,13.44473844725741L74.84997099346118,111.97320476714489L193.70933829500555,56.98484489432832zM74.84997099346118,111.97320476714489L193.70933829500555,155.51331121421583L193.70933829500555,56.98484489432832z" style="fill:rgb(238,238,238); fill-opacity: 0.32"></path><path d="M193.70933829500555,56.984844894328326L193.70933829500555,155.51331121421583" style="fill:none;stroke:rgb(0,0,0);stroke-width:1;stroke-linecap:round"></path><path d="M193.70933829500555,56.98484489432832L193.70933829500555,155.51331121421583L260.92842386613654,11.027845858703092zM463.2669185455773,180.7693723265929L327.42764162952676,131.00925067279758L327.42764162952676,52.97614466274448z" style="fill:rgb(238,238,238); fill-opacity: 0.32"></path><path d="M457.38867745707273,120.27968828734713L321.54940054102207,70.51956663355179M321.54940054102207,60.6633825205993L321.54940054102207,70.51956663355179M321.54940054102207,70.51956663355179L314.8252150539325,75.11682325077446M463.26691854557737,102.73626631653983L327.4276416295267,52.9761446627445M327.4276416295267,52.9761446627445L274.19110780141256,89.3734165537716" style="fill:none;stroke:rgb(0,0,0);stroke-width:1;stroke-linecap:round"></path><path d="M274.19110780141256,167.40652256382472L327.42764162952676,131.00925067279758L463.2669185455773,180.7693723265929z" style="fill:rgb(238,238,238); fill-opacity: 0.32"></path><path d="M457.38867745707273,110.42350417439464L321.54940054102207,60.6633825205993M321.54940054102207,60.6633825205993L314.8252150539325,65.26063913782197" style="fill:none;stroke:rgb(0,0,0);stroke-width:1;stroke-linecap:round"></path><path d="M321.54940054102207,60.663382520599285L321.54940054102207,70.51956663355179L314.82521505393254,65.26063913782195z" style="fill:rgb(153,221,255); fill-opacity: 0.4"></path><path d="M327.42764162952676,52.97614466274448L327.42764162952676,131.00925067279758L274.19110780141256,89.37341655377159z" style="fill:rgb(238,238,238); fill-opacity: 0.32"></path><path d="M321.54940054102207,70.51956663355179L314.82521505393254,75.11682325077446L314.82521505393254,65.26063913782195z" style="fill:rgb(153,221,255); fill-opacity: 0.4"></path><path d="M314.8252150539325,65.26063913782197L314.8252150539325,75.11682325077446M314.8252150539325,75.11682325077446L450.6644919699832,124.87694490456978" style="fill:none;stroke:rgb(0,0,0);stroke-width:1;stroke-linecap:round"></path><path d="M327.42764162952676,131.00925067279758L274.19110780141256,167.40652256382472L274.19110780141256,89.37341655377159z" style="fill:rgb(238,238,238); fill-opacity: 0.32"></path><path d="M314.8252150539325,65.26063913782197L450.6644919699832,115.02076079161729M274.19110780141256,89.3734165537716L274.19110780141256,167.40652256382472M274.19110780141256,167.40652256382472L410.0303847174632,217.16664421762005" style="fill:none;stroke:rgb(0,0,0);stroke-width:1;stroke-linecap:round"></path><path d="M457.3886774570726,120.2796882873471L321.54940054102207,70.51956663355179L321.54940054102207,60.663382520599285zM314.82521505393254,75.11682325077446L321.54940054102207,70.51956663355179L457.3886774570726,120.2796882873471zM314.82521505393254,65.26063913782195L450.66449196998315,115.02076079161726L321.54940054102207,60.663382520599285zM314.82521505393254,65.26063913782195L314.82521505393254,75.11682325077446L450.66449196998315,115.02076079161726z" style="fill:rgb(153,221,255); fill-opacity: 0.4"></path><path d="M463.26691854557737,102.73626631653983L463.26691854557737,180.76937232659293M463.26691854557737,180.76937232659293L410.0303847174632,217.16664421762005" style="fill:none;stroke:rgb(0,0,0);stroke-width:1;stroke-linecap:round"></path><path d="M463.2669185455773,102.7362663165398L463.2669185455773,180.7693723265929L327.42764162952676,52.97614466274448zM410.0303847174631,217.16664421762002L274.19110780141256,167.40652256382472L463.2669185455773,180.7693723265929z" style="fill:rgb(238,238,238); fill-opacity: 0.32"></path><path d="M457.3886774570726,110.42350417439461L457.3886774570726,120.2796882873471L321.54940054102207,60.663382520599285zM450.66449196998315,124.87694490456975L314.82521505393254,75.11682325077446L457.3886774570726,120.2796882873471z" style="fill:rgb(153,221,255); fill-opacity: 0.4"></path><path d="M274.19110780141256,89.3734165537716L410.0303847174632,139.13353820756694" style="fill:none;stroke:rgb(0,0,0);stroke-width:1;stroke-linecap:round"></path><path d="M450.66449196998315,115.02076079161726L457.3886774570726,110.42350417439461L321.54940054102207,60.663382520599285zM314.82521505393254,75.11682325077446L450.66449196998315,124.87694490456975L450.66449196998315,115.02076079161726z" style="fill:rgb(153,221,255); fill-opacity: 0.4"></path><path d="M274.19110780141256,89.37341655377159L410.0303847174631,139.13353820756691L327.42764162952676,52.97614466274448zM274.19110780141256,89.37341655377159L274.19110780141256,167.40652256382472L410.0303847174631,139.13353820756691zM410.0303847174631,217.16664421762002L463.2669185455773,180.7693723265929L463.2669185455773,102.7362663165398zM410.0303847174631,139.13353820756691L463.2669185455773,102.7362663165398L327.42764162952676,52.97614466274448z" style="fill:rgb(238,238,238); fill-opacity: 0.32"></path><path d="M457.38867745707273,110.42350417439464L457.38867745707273,120.27968828734713M457.38867745707273,120.27968828734713L450.6644919699832,124.87694490456978M457.38868019205637,110.42350419299018L457.38868019205637,120.27968987254094M457.38868019205637,120.27968987254094L450.6644947049669,124.87694648976361M457.38868019205637,120.27968987254094L522.952775219912,155.68138044268912M463.26691854557737,102.73626631653983L410.0303847174632,139.13353820756694" style="fill:none;stroke:rgb(0,0,0);stroke-width:1;stroke-linecap:round"></path><path d="M457.38867727044067,110.42350410602832L457.38867727044067,120.27968821898081L450.6644917833512,124.87694483620346z" style="fill:rgb(255,187,187); fill-opacity: 0.4"></path><path d="M450.66449196998315,124.87694490456975L457.3886774570726,120.2796882873471L457.3886774570726,110.42350417439461z" style="fill:rgb(153,221,255); fill-opacity: 0.4"></path><path d="M274.19110780141256,167.40652256382472L410.0303847174631,217.16664421762002L410.0303847174631,139.13353820756691z" style="fill:rgb(238,238,238); fill-opacity: 0.32"></path><path d="M457.38867745707273,110.42350417439464L450.6644919699832,115.02076079161729M457.38868019205637,110.42350419299018L450.6644947049669,115.02076081021283M457.38868019205637,110.42350419299018L522.952775219912,155.68138044268912M450.6644919699832,115.02076079161729L450.6644919699832,124.87694490456978M450.6644947049669,124.87694648976361L450.6644947049669,115.02076081021283M450.6644947049669,124.87694648976361L522.952775219912,155.68138044268912" style="fill:none;stroke:rgb(0,0,0);stroke-width:1;stroke-linecap:round"></path><path d="M457.38867727044067,110.42350410602832L450.6644917833512,124.87694483620346L450.6644917833512,115.02076072325097z" style="fill:rgb(255,187,187); fill-opacity: 0.4"></path><path d="M450.66449196998315,115.02076079161726L450.66449196998315,124.87694490456975L457.3886774570726,110.42350417439461z" style="fill:rgb(153,221,255); fill-opacity: 0.4"></path><path d="M450.6644947049669,115.02076081021283L522.952775219912,155.68138044268912M682.5853227928664,258.2024476642281L529.7661362623095,202.22231080370835M529.7661362623095,144.68456510348963L529.7661362623095,202.22231080370835M529.7661362623095,202.22231080370835L490.51215417721215,229.0598555501373M410.0303847174632,139.13353820756694L410.0303847174632,217.16664421762005" style="fill:none;stroke:rgb(0,0,0);stroke-width:1;stroke-linecap:round"></path><path d="M457.38867727044067,120.27968821898081L457.38867727044067,110.42350410602832L522.9527724678327,155.68137825823243zM450.6644917833512,124.87694483620346L457.38867727044067,120.27968821898081L522.9527724678327,155.68137825823243zM457.38867727044067,110.42350410602832L450.6644917833512,115.02076072325097L522.9527724678327,155.68137825823243zM450.6644917833512,115.02076072325097L450.6644917833512,124.87694483620346L522.9527724678327,155.68137825823243z" style="fill:rgb(255,187,187); fill-opacity: 0.4"></path><path d="M410.0303847174631,139.13353820756691L410.0303847174631,217.16664421762002L463.2669185455773,102.7362663165398z" style="fill:rgb(238,238,238); fill-opacity: 0.32"></path><path d="M682.5853227928664,200.6647019640094L529.7661362623095,144.68456510348963M529.7661362623095,144.68456510348963L490.51215417721215,171.52210984991862" style="fill:none;stroke:rgb(0,0,0);stroke-width:1;stroke-linecap:round"></path><path d="M529.7661362623095,144.68456510348963L529.7661362623095,202.22231080370835L490.5121541772122,171.52210984991862zM529.7661362623095,202.22231080370835L490.5121541772122,229.0598555501373L490.5121541772122,171.52210984991862zM682.5853227928665,258.2024476642281L529.7661362623095,202.22231080370835L529.7661362623095,144.68456510348963z" style="fill:rgb(238,238,238); fill-opacity: 0.32"></path><path d="M490.51215417721215,171.52210984991862L490.51215417721215,229.0598555501373M490.51215417721215,229.0598555501373L643.3313407077691,285.0399924106571" style="fill:none;stroke:rgb(0,0,0);stroke-width:1;stroke-linecap:round"></path><path d="M490.5121541772122,229.0598555501373L529.7661362623095,202.22231080370835L682.5853227928665,258.2024476642281z" style="fill:rgb(238,238,238); fill-opacity: 0.32"></path><path d="M490.51215417721215,171.52210984991862L643.3313407077691,227.50224671043836" style="fill:none;stroke:rgb(0,0,0);stroke-width:1;stroke-linecap:round"></path><path d="M682.5853227928665,200.6647019640094L682.5853227928665,258.2024476642281L529.7661362623095,144.68456510348963zM643.3313407077691,285.0399924106571L490.5121541772122,229.0598555501373L682.5853227928665,258.2024476642281zM490.5121541772122,171.52210984991862L643.3313407077691,227.50224671043836L529.7661362623095,144.68456510348963z" style="fill:rgb(238,238,238); fill-opacity: 0.32"></path><path d="M682.5853227928664,200.6647019640094L682.5853227928664,258.2024476642281M682.5853227928664,258.2024476642281L643.3313407077691,285.0399924106571" style="fill:none;stroke:rgb(0,0,0);stroke-width:1;stroke-linecap:round"></path><path d="M490.5121541772122,171.52210984991862L490.5121541772122,229.0598555501373L643.3313407077691,227.50224671043836zM643.3313407077691,227.50224671043836L682.5853227928665,200.6647019640094L529.7661362623095,144.68456510348963zM490.5121541772122,229.0598555501373L643.3313407077691,285.0399924106571L643.3313407077691,227.50224671043836zM643.3313407077691,285.0399924106571L682.5853227928665,258.2024476642281L682.5853227928665,200.6647019640094z" style="fill:rgb(238,238,238); fill-opacity: 0.32"></path><path d="M682.5853227928664,200.6647019640094L643.3313407077691,227.50224671043836M772.0936982842977,357.47094972355507L752.9912999679781,350.4734326159901M752.9912999679781,186.51056267010122L752.9912999679781,350.4734326159901M752.9912999679781,350.4734326159901L739.0087492937417,360.03315902987396" style="fill:none;stroke:rgb(0,0,0);stroke-width:1;stroke-linecap:round"></path><path d="M739.0087492937417,360.0331590298739L752.9912999679782,350.4734326159901L772.0936982842977,357.47094972355507z" style="fill:rgb(238,238,238); fill-opacity: 0.32"></path><path d="M643.3313407077691,227.50224671043836L643.3313407077691,285.0399924106571M675.5716345883062,247.47280378813176L718.4410894127924,263.176577657722M772.0936982842977,193.50807977766618L772.0936982842977,357.47094972355507M772.0936982842977,357.47094972355507L758.1111476100614,367.0306761374389" style="fill:none;stroke:rgb(0,0,0);stroke-width:1;stroke-linecap:round"></path><path d="M643.3313407077691,227.50224671043836L643.3313407077691,285.0399924106571L682.5853227928665,200.6647019640094z" style="fill:rgb(238,238,238); fill-opacity: 0.32"></path><path d="M739.0087492937417,196.07028908398507L739.0087492937417,360.03315902987396M739.0087492937417,360.03315902987396L758.1111476100614,367.0306761374389" style="fill:none;stroke:rgb(0,0,0);stroke-width:1;stroke-linecap:round"></path><path d="M758.1111476100613,367.0306761374389L739.0087492937417,360.0331590298739L772.0936982842977,357.47094972355507z" style="fill:rgb(238,238,238); fill-opacity: 0.32"></path><path d="M758.1111476100614,203.06780619155006L758.1111476100614,367.0306761374389" style="fill:none;stroke:rgb(0,0,0);stroke-width:1;stroke-linecap:round"></path><path d="M772.0936982842977,357.47094972355507L752.9912999679782,350.4734326159901L752.9912999679782,186.51056267010122zM752.9912999679782,350.4734326159901L739.0087492937417,360.0331590298739L739.0087492937417,196.07028908398507z" style="fill:rgb(238,238,238); fill-opacity: 0.32"></path><path d="M713.1118555929986,269.35822719389796L718.4410894127925,271.39006441851586L742.9379207410702,272.1501627260594zM721.7347369187506,254.2798942157284L715.1474419068344,258.78356021977817L742.9379207410702,272.1501627260594zM715.1474419068344,258.78356021977817L713.1118555929986,269.35822719389796L742.9379207410702,272.1501627260594z" style="fill:rgb(0,0,0)"></path><path d="M758.1111476100613,367.0306761374389L772.0936982842977,357.47094972355507L772.0936982842977,193.50807977766624zM739.0087492937417,360.0331590298739L758.1111476100613,367.0306761374389L758.1111476100613,203.0678061915501zM752.9912999679782,186.51056267010122L752.9912999679782,350.4734326159901L739.0087492937417,196.07028908398507z" style="fill:rgb(238,238,238); fill-opacity: 0.32"></path><path d="M768.1645268369691,281.39107608148066L811.0339816614553,297.09484995107096" style="fill:none;stroke:rgb(0,0,0);stroke-width:1;stroke-linecap:round"></path><path d="M772.0936982842977,193.50807977766624L772.0936982842977,357.47094972355507L752.9912999679782,186.51056267010122zM739.0087492937417,196.07028908398507L739.0087492937417,360.0331590298739L758.1111476100613,203.0678061915501zM758.1111476100613,203.0678061915501L758.1111476100613,367.0306761374389L772.0936982842977,193.50807977766624z" style="fill:rgb(238,238,238); fill-opacity: 0.32"></path><path d="M864.6865905329607,332.9543356160912L845.584192216641,325.9568185085263M845.584192216641,278.8637213642628L845.584192216641,325.9568185085263M845.584192216641,325.9568185085263L831.6016415424046,335.5165449224101M772.0936982842977,193.50807977766618L752.9912999679781,186.51056267010122M752.9912999679781,186.51056267010122L739.0087492937417,196.07028908398507" style="fill:none;stroke:rgb(0,0,0);stroke-width:1;stroke-linecap:round"></path><path d="M831.6016415424046,335.5165449224101L845.5841922166411,325.9568185085263L864.6865905329607,332.95433561609127z" style="fill:rgb(238,238,238); fill-opacity: 0.32"></path><path d="M805.7047478416615,303.27649948724684L811.0339816614553,305.30833671186474L835.5308129897331,306.0684350194083z" style="fill:rgb(0,0,0)"></path><path d="M864.6865905329607,285.8612384718278L864.6865905329607,332.9543356160912M864.6865905329607,332.9543356160912L850.7040398587244,342.5140620299751" style="fill:none;stroke:rgb(0,0,0);stroke-width:1;stroke-linecap:round"></path><path d="M814.3276291674134,288.1981665090773L807.7403341554972,292.70183251312704L835.5308129897331,306.0684350194083z" style="fill:rgb(0,0,0)"></path><path d="M864.6865905329607,332.95433561609127L845.5841922166411,325.9568185085263L845.5841922166411,278.8637213642628z" style="fill:rgb(238,238,238); fill-opacity: 0.32"></path><path d="M807.7403341554972,292.70183251312704L805.7047478416615,303.27649948724684L835.5308129897331,306.0684350194083z" style="fill:rgb(0,0,0)"></path><path d="M772.0936982842977,193.50807977766618L758.1111476100614,203.06780619155006" style="fill:none;stroke:rgb(0,0,0);stroke-width:1;stroke-linecap:round"></path><path d="M758.1111476100613,203.0678061915501L772.0936982842977,193.50807977766624L752.9912999679782,186.51056267010122z" style="fill:rgb(238,238,238); fill-opacity: 0.32"></path><path d="M831.6016415424046,288.4234477781467L831.6016415424046,335.5165449224101M831.6016415424046,335.5165449224101L850.7040398587244,342.5140620299751" style="fill:none;stroke:rgb(0,0,0);stroke-width:1;stroke-linecap:round"></path><path d="M739.0087492937417,196.07028908398507L758.1111476100613,203.0678061915501L752.9912999679782,186.51056267010122z" style="fill:rgb(238,238,238); fill-opacity: 0.32"></path><path d="M739.0087492937417,196.07028908398507L758.1111476100614,203.06780619155006" style="fill:none;stroke:rgb(0,0,0);stroke-width:1;stroke-linecap:round"></path><path d="M850.7040398587243,342.5140620299751L831.6016415424046,335.5165449224101L864.6865905329607,332.95433561609127zM845.5841922166411,325.9568185085263L831.6016415424046,335.5165449224101L831.6016415424046,288.4234477781466zM845.5841922166411,278.8637213642628L845.5841922166411,325.9568185085263L831.6016415424046,288.4234477781466zM864.6865905329607,285.8612384718278L864.6865905329607,332.95433561609127L845.5841922166411,278.8637213642628zM850.7040398587243,342.5140620299751L864.6865905329607,332.95433561609127L864.6865905329607,285.8612384718278z" style="fill:rgb(238,238,238); fill-opacity: 0.32"></path><path d="M864.6865905329607,285.8612384718278L845.584192216641,278.8637213642628M845.584192216641,278.8637213642628L831.6016415424046,288.4234477781467M850.7040398587244,295.4209648857116L850.7040398587244,342.5140620299751" style="fill:none;stroke:rgb(0,0,0);stroke-width:1;stroke-linecap:round"></path><path d="M831.6016415424046,335.5165449224101L850.7040398587243,342.5140620299751L850.7040398587243,295.4209648857116z" style="fill:rgb(238,238,238); fill-opacity: 0.32"></path><path d="M860.7574190856321,315.30934837482965L903.6268739101184,331.01312224441995" style="fill:none;stroke:rgb(0,0,0);stroke-width:1;stroke-linecap:round"></path><path d="M831.6016415424046,288.4234477781466L831.6016415424046,335.5165449224101L850.7040398587243,295.4209648857116z" style="fill:rgb(238,238,238); fill-opacity: 0.32"></path><path d="M864.6865905329607,285.8612384718278L850.7040398587244,295.4209648857116" style="fill:none;stroke:rgb(0,0,0);stroke-width:1;stroke-linecap:round"></path><path d="M850.7040398587243,295.4209648857116L864.6865905329607,285.8612384718278L845.5841922166411,278.8637213642628zM850.7040398587243,295.4209648857116L850.7040398587243,342.5140620299751L864.6865905329607,285.8612384718278zM831.6016415424046,288.4234477781466L850.7040398587243,295.4209648857116L845.5841922166411,278.8637213642628z" style="fill:rgb(238,238,238); fill-opacity: 0.32"></path><path d="M831.6016415424046,288.4234477781467L850.7040398587244,295.4209648857116" style="fill:none;stroke:rgb(0,0,0);stroke-width:1;stroke-linecap:round"></path><path d="M898.2976400903246,337.19477178059583L903.6268739101185,339.22660900521373L928.1237052383963,339.9867073127573zM906.9205214160766,322.1164388024263L900.3332264041604,326.62010480647604L928.1237052383963,339.9867073127573z" style="fill:rgb(0,0,0)"></path><path d="M957.2794827816236,344.96875668946717L938.177084465304,337.9712395819022M938.177084465304,334.6858448775847L938.177084465304,337.9712395819022M938.177084465304,337.9712395819022L924.1945337910677,347.53096599578606" style="fill:none;stroke:rgb(0,0,0);stroke-width:1;stroke-linecap:round"></path><path d="M900.3332264041604,326.62010480647604L898.2976400903246,337.19477178059583L928.1237052383963,339.9867073127573z" style="fill:rgb(0,0,0)"></path><path d="M957.2794827816236,341.6833619851497L938.177084465304,334.6858448775847M938.177084465304,334.6858448775847L924.1945337910677,344.24557129146854" style="fill:none;stroke:rgb(0,0,0);stroke-width:1;stroke-linecap:round"></path><path d="M957.2794827816238,344.96875668946717L938.1770844653041,337.9712395819022L938.1770844653041,334.6858448775847zM938.1770844653041,334.6858448775847L938.1770844653041,337.9712395819022L924.1945337910677,344.24557129146854zM957.2794827816238,341.6833619851497L957.2794827816238,344.96875668946717L938.1770844653041,334.6858448775847zM924.1945337910677,347.53096599578606L938.1770844653041,337.9712395819022L957.2794827816238,344.96875668946717zM938.1770844653041,337.9712395819022L924.1945337910677,347.53096599578606L924.1945337910677,344.24557129146854z" style="fill:rgb(238,238,238); fill-opacity: 0.32"></path><path d="M957.2794827816236,341.6833619851497L957.2794827816236,344.96875668946717M957.2794827816236,344.96875668946717L943.2969321073873,354.52848310335105M957.2794827816236,341.6833619851497L943.2969321073873,351.2430883990336" style="fill:none;stroke:rgb(0,0,0);stroke-width:1;stroke-linecap:round"></path><path d="M943.2969321073873,351.2430883990336L957.2794827816238,341.6833619851497L938.1770844653041,334.6858448775847z" style="fill:rgb(238,238,238); fill-opacity: 0.32"></path><path d="M924.1945337910677,344.24557129146854L924.1945337910677,347.53096599578606M924.1945337910677,347.53096599578606L943.2969321073873,354.52848310335105" style="fill:none;stroke:rgb(0,0,0);stroke-width:1;stroke-linecap:round"></path><path d="M924.1945337910677,344.24557129146854L943.2969321073873,351.2430883990336L938.1770844653041,334.6858448775847zM943.2969321073873,354.52848310335105L957.2794827816238,344.96875668946717L957.2794827816238,341.6833619851497z" style="fill:rgb(238,238,238); fill-opacity: 0.32"></path><path d="M924.1945337910677,344.24557129146854L943.2969321073873,351.2430883990336" style="fill:none;stroke:rgb(0,0,0);stroke-width:1;stroke-linecap:round"></path><path d="M943.2969321073873,354.52848310335105L924.1945337910677,347.53096599578606L957.2794827816238,344.96875668946717zM924.1945337910677,344.24557129146854L924.1945337910677,347.53096599578606L943.2969321073873,351.2430883990336zM943.2969321073873,351.2430883990336L943.2969321073873,354.52848310335105L957.2794827816238,341.6833619851497zM924.1945337910677,347.53096599578606L943.2969321073873,354.52848310335105L943.2969321073873,351.2430883990336z" style="fill:rgb(238,238,238); fill-opacity: 0.32"></path><path d="M943.2969321073873,351.2430883990336L943.2969321073873,354.52848310335105" style="fill:none;stroke:rgb(0,0,0);stroke-width:1;stroke-linecap:round"></path></svg>